<?xml version="1.0" ?><svg id="Layer_1" style="enable-background:new 0 0 193 193;" version="1.1" viewBox="0 0 193 193" xml:space="preserve" xmlns="http://www.w3.org/2000/svg" xmlns:xlink="http://www.w3.org/1999/xlink"><style type="text/css">
	.st0{clip-path:url(#SVGID_2_);}
	.st1{fill:#DFE0E0;}
	.st2{fill:#FFD15D;}
	.st3{fill:#5FE0ED;}
	.st4{fill:none;}
	.st5{fill:#48515A;}
</style><g><defs><rect height="193" id="SVGID_1_" width="193"/></defs><clipPath id="SVGID_2_"><use style="overflow:visible;" xlink:href="#SVGID_1_"/></clipPath><g class="st0"><g><rect class="st1" height="4.7" width="36" x="145.5" y="139"/></g><g><g><g><path class="st2" d="M36,81.9h45.5l-29.2-39L36,81.9z"/></g></g><g><path class="st3" d="M148.5,135.8h-2V93.5l-34.8,36.4l-5.3-5.3l35.5-36l11.5-3.9c1.8,3.7,6.1,6.4,11.2,6.4c5,0,9.2-2.5,11.1-6.1      l12.9,6v50.8l-0.2,0.2h-3.8v-0.2h2V101h-6v34.8h-2L148.5,135.8z"/></g><g><g><g><g><g><g><path class="st4" d="M170.9,77L170.9,77C170.9,77,170.9,77,170.9,77C170.9,77,170.9,77,170.9,77           C170.9,77,170.9,77,170.9,77C170.9,77,170.9,77,170.9,77z"/></g></g><g><path class="st1" d="M164.5,82"/></g><g><path class="st1" d="M158.5,77.4l11.2,3.1l0.8-4.5v-2.7c0.2-0.2-1.6,1.3-2.5,2.1c-0.7,0.6-1.5,0.9-2.4,0.9h-1h-1H163          c-0.9,0-1.7-0.3-2.4-0.9l-2-1.4L158.5,77.4z"/></g><g><g><path class="st5" d="M155.5,82c-0.4,0-0.8-0.3-1-0.7c-0.2-0.5,0.1-1.1,0.7-1.2l2.2-0.7v-5.6c0-0.6,0.4-1,1-1           c0.6,0,1,0.4,1,1v7l-3.6,1.1C155.7,82,155.6,82,155.5,82z"/></g><g><path class="st5" d="M173.5,82c-0.1,0-0.2,0-0.3,0l-3.8-1.2V73l0.3-0.3c0.2-0.2,0.9-0.9,1.1-1.3l2.6-5.3l2.7-1.3l0.6-2.7           c0-0.1,0-0.1-0.1-0.2c0,0-0.1-0.1-0.2-0.1h-1.7l0.2-1.2c0.2-1.2,0.3-2.3,0.3-3.2V57l1-0.1l1,0l0,0.5c0,0.8-0.1,1.6-0.2,2.5           c0.4,0.1,0.8,0.3,1,0.6c0.4,0.4,0.7,1,0.6,1.7l0,0.2l-0.8,3.8l-2.9,1.5l-2.2,4.6c-0.2,0.5-0.7,1.1-1.2,1.6v5.4l2.4,0.8           c0.5,0.2,0.8,0.7,0.6,1.3C174.3,81.7,174,82,173.5,82z"/></g><g><path class="st5" d="M165.6,77.4H163c-1.1,0-2.2-0.4-3.1-1.1c-0.2-0.2-0.5-0.4-0.8-0.7c-1.3-1.1-2.8-2.3-3.2-3.5l-2.1-4.5           l-2.5-1.4l-1.1-4c0-1.1,0.7-2,1.7-2.2c-0.1-0.9-0.2-1.7-0.2-2.5v-0.2c0-0.6,0.4-1,1-1s1,0.4,1,1v0.2c0,1,0.1,2,0.3,3.2           l0.2,1.1h-1.6c-0.2,0-0.3,0.1-0.3,0.2l0.8,2.8l2.3,1.4l2.4,5.2c0.3,0.8,1.7,1.9,2.6,2.7c0.3,0.2,0.6,0.5,0.8,0.7           c0.5,0.4,1.1,0.7,1.8,0.7h2.6c0.6,0,1,0.4,1,1C166.6,76.9,166.1,77.4,165.6,77.4z"/></g></g></g><g><path class="st5" d="M176.5,138.8c0-0.6,0.4-1,1-1l0,0c0.5,0,1,0.4,1,1l0,0c0,0.6-0.5,1-1,1l0,0         C177,139.8,176.5,139.4,176.5,138.8z M172.5,138.8c0-0.6,0.4-1,1-1l0,0c0.5,0,1,0.4,1,1l0,0c0,0.6-0.5,1-1,1l0,0         C173,139.8,172.5,139.4,172.5,138.8z M168.5,138.8c0-0.6,0.4-1,1-1l0,0c0.5,0,1,0.4,1,1l0,0c0,0.6-0.5,1-1,1l0,0         C169,139.8,168.5,139.4,168.5,138.8z M164.5,138.8c0-0.6,0.4-1,1-1l0,0c0.5,0,1,0.4,1,1l0,0c0,0.6-0.5,1-1,1l0,0         C165,139.8,164.5,139.4,164.5,138.8z M160.5,138.8c0-0.6,0.4-1,1-1l0,0c0.5,0,1,0.4,1,1l0,0c0,0.6-0.5,1-1,1l0,0         C161,139.8,160.5,139.4,160.5,138.8z M156.5,138.8c0-0.6,0.4-1,1-1l0,0c0.5,0,1,0.4,1,1l0,0c0,0.6-0.5,1-1,1l0,0         C157,139.8,156.5,139.4,156.5,138.8z M152.5,138.8c0-0.6,0.4-1,1-1l0,0c0.5,0,1,0.4,1,1l0,0c0,0.6-0.5,1-1,1l0,0         C153,139.8,152.5,139.4,152.5,138.8z M148.5,138.8c0-0.6,0.4-1,1-1l0,0c0.5,0,1,0.4,1,1l0,0c0,0.6-0.5,1-1,1l0,0         C149,139.8,148.5,139.4,148.5,138.8z"/></g><g><rect class="st5" height="39" width="2" x="162.5" y="149"/></g><g><polygon class="st5" points="182.5,188 180.5,188 180.5,137.8 182.5,137.8 182.5,101 184.5,101 184.5,139.8 182.5,139.8                 "/></g><g><polygon class="st5" points="185.9,158 181.5,158 181.5,156 185.1,156 186.5,154.6 186.5,145 188.5,145 188.5,155.4                 "/></g><g><polygon class="st5" points="149.9,148 145.5,148 145.5,146 148.7,146 150.6,142.8 150.6,140.9 152.6,140.9 152.6,143.3                 "/></g><g><polygon class="st5" points="181.3,148 176.9,148 174.5,143.3 174.5,140.9 176.5,140.9 176.5,142.8 178.1,146 181.3,146                 "/></g><g><path class="st5" d="M169.5,70c-0.1,0-0.2,0-0.4-0.1l-4.6-1.9l-4.6,1.9c-0.5,0.2-1.1,0-1.3-0.6c-0.2-0.5,0-1.1,0.6-1.3         l5.4-2.1l5.4,2.1c0.5,0.2,0.8,0.8,0.6,1.3C170.3,69.7,169.9,70,169.5,70z"/></g><g><path class="st5" d="M152,61c-0.1-0.5,0.3-1.1,0.8-1.1l0,0c0.5-0.1,1.1,0.3,1.1,0.8l0,0c0.1,0.5-0.3,1.1-0.8,1.1l0,0         c0,0-0.1,0-0.1,0l0,0C152.5,61.8,152.1,61.5,152,61z M175.7,61.4c-0.5-0.1-0.9-0.6-0.8-1.2v0c0.1-0.6,0.6-0.9,1.1-0.8l0,0         c0.5,0.1,0.9,0.6,0.8,1.2l0,0l0,0l0,0c-0.1,0.5-0.5,0.8-1,0.8l0,0C175.8,61.4,175.7,61.4,175.7,61.4z M152.7,57.9         c-0.5,0-1-0.5-1-1l0,0c0-0.5,0.5-1,1-1l0,0c0.5,0,1,0.5,1,1l0,0C153.7,57.4,153.2,57.9,152.7,57.9L152.7,57.9         C152.7,57.9,152.7,57.9,152.7,57.9z M175.1,56.5c0-0.5,0.4-1,1-1l0,0c0.6,0,1,0.4,1,1l0,0c0,0.5-0.4,1-1,1l0,0c0,0,0,0,0,0         l0,0C175.5,57.5,175.1,57,175.1,56.5z M153.1,53.9c-0.5-0.2-0.8-0.8-0.6-1.3l0,0c0.2-0.5,0.8-0.8,1.3-0.6l0,0         c0.5,0.2,0.8,0.8,0.6,1.3l0,0c-0.2,0.4-0.5,0.6-0.9,0.6l0,0C153.4,54,153.3,53.9,153.1,53.9z M174.3,53         c-0.2-0.5,0-1.1,0.5-1.3l0,0c0.5-0.2,1.1,0,1.3,0.5l0,0c0.2,0.5,0,1.1-0.5,1.3l0,0c-0.1,0.1-0.3,0.1-0.4,0.1l0,0         C174.8,53.6,174.5,53.3,174.3,53z M154.9,50.3c-0.4-0.4-0.5-1-0.1-1.4l0,0c0.3-0.4,1-0.5,1.4-0.1l0,0c0.4,0.4,0.5,1,0.1,1.4         l0,0c-0.2,0.2-0.5,0.3-0.8,0.3l0,0C155.3,50.5,155.1,50.5,154.9,50.3z M172.4,49.9L172.4,49.9c-0.4-0.4-0.3-1,0.1-1.4l0,0         c0.4-0.4,1-0.3,1.4,0.1l0,0c0.4,0.4,0.3,1.1-0.1,1.4l0,0c-0.2,0.2-0.4,0.3-0.7,0.3l0,0C172.8,50.2,172.6,50.1,172.4,49.9z          M157.7,47.5c-0.3-0.5-0.1-1.1,0.3-1.4l0,0c0,0,0,0,0,0l0,0c0.5-0.3,1.1-0.1,1.4,0.3l0,0c0.3,0.5,0.1,1.1-0.3,1.4l0,0         c-0.2,0.1-0.3,0.1-0.5,0.1l0,0C158.2,47.9,157.9,47.8,157.7,47.5z M169.5,47.6L169.5,47.6c-0.5-0.3-0.7-0.9-0.4-1.4l0,0         c0.3-0.5,0.9-0.7,1.4-0.4l0,0c0.5,0.3,0.7,0.9,0.4,1.3l0,0c-0.2,0.3-0.5,0.5-0.9,0.5l0,0C169.8,47.7,169.7,47.7,169.5,47.6z          M161.3,45.7c-0.1-0.5,0.2-1.1,0.8-1.2l0,0l0,0l0,0c0.5-0.1,1.1,0.2,1.2,0.8l0,0c0.1,0.5-0.2,1.1-0.8,1.2l0,0         c-0.1,0-0.1,0-0.2,0l0,0C161.8,46.5,161.4,46.2,161.3,45.7z M166.1,46.4c-0.6-0.1-0.9-0.6-0.8-1.2l0,0         c0.1-0.5,0.6-0.9,1.1-0.8l0,0l0,0l0,0c0.5,0.1,0.9,0.6,0.8,1.2l0,0c-0.1,0.5-0.5,0.8-1,0.8l0,0         C166.2,46.4,166.1,46.4,166.1,46.4z"/></g><g><path class="st5" d="M144.6,188l-0.1-48.1h-2v-36.3l-30.8,32.1l-11-11l38.9-39.5l13.9-4.7l3-0.6V81c0,3.3,3.6,6,8,6         c4.4,0,8-2.7,8-6v-1.3l3.1,0.8l16.9,7.9v55l-2.6,2.6h-8.4v-2h7.6l1.4-1.4V89.6l-15.7-7.3l-0.4-0.1c-0.7,3.8-4.9,6.8-9.9,6.8         c-5,0-9.2-3-9.9-6.8l-0.7,0.1l-13.2,4.5l-37.2,37.8l8.2,8.2l32.8-34.3v39.3h2l0.1,50.1L144.6,188z"/></g><g><path class="st5" d="M105.5,142.8h-4c-2.7,0-5-2.2-5-5v-6c0-0.3,0.1-0.5,0.3-0.7l6-6c0.4-0.4,1-0.4,1.4,0         c0.4,0.4,0.4,1,0,1.4l-5.7,5.7v5.6c0,1.6,1.3,3,3,3h3.6l3.7-3.7c0.2-0.2,0.4-0.3,0.7-0.3h1v-3c0-0.6,0.4-1,1-1         c0.6,0,1,0.4,1,1v4c0,0.6-0.4,1-1,1h-1.6l-3.7,3.7C106,142.7,105.8,142.8,105.5,142.8z"/></g><g><g><path class="st5" d="M111.5,186.8c-0.6,0-1-0.4-1-1v-42c0-1.9-0.7-3.6-2.1-5c-0.4-0.4-0.4-1,0-1.4c0.4-0.4,1-0.4,1.4,0          c1.7,1.7,2.6,4,2.6,6.4v42C112.5,186.4,112.1,186.8,111.5,186.8z"/></g><g><path class="st5" d="M95.5,144.8c-0.6,0-1-0.4-1-1c0-2.3,0.9-4.5,2.4-6.1c0.4-0.4,1-0.4,1.4-0.1c0.4,0.4,0.4,1,0.1,1.4          c-1.2,1.3-1.9,3-1.9,4.8C96.5,144.4,96.1,144.8,95.5,144.8z"/></g></g></g><g><rect class="st5" height="2" width="10" x="167.5" y="101"/></g></g><g><circle class="st2" cx="117.5" cy="33" r="23"/></g><g><path class="st5" d="M115.5,60.9c-0.5,0-1-0.5-0.9-1.1l0,0c0-0.5,0.5-1,1.1-0.9l0,0c0.5,0,1,0.5,0.9,1.1l0,0       C116.5,60.5,116.1,60.9,115.5,60.9L115.5,60.9C115.5,60.9,115.5,60.9,115.5,60.9z M118.6,60c0-0.5,0.4-1,0.9-1.1l0,0       c0.6,0,1,0.4,1.1,0.9l0,0c0,0.5-0.4,1-0.9,1.1l0,0c0,0-0.1,0-0.1,0l0,0C119.1,60.9,118.6,60.5,118.6,60z M111.4,60.3       c-0.5-0.1-0.9-0.7-0.8-1.2l0,0c0.1-0.5,0.7-0.9,1.2-0.8l0,0c0.5,0.1,0.9,0.7,0.8,1.2l0,0c-0.1,0.5-0.5,0.8-1,0.8l0,0       C111.5,60.3,111.4,60.3,111.4,60.3z M122.6,59.5c-0.1-0.5,0.2-1.1,0.8-1.2l0,0c0.5-0.1,1.1,0.2,1.2,0.8l0,0       c0.1,0.5-0.2,1.1-0.8,1.2l0,0c-0.1,0-0.1,0-0.2,0l0,0C123.1,60.3,122.7,60,122.6,59.5z M107.4,59c-0.5-0.2-0.8-0.8-0.6-1.3l0,0       c0.2-0.5,0.8-0.8,1.3-0.6l0,0c0.5,0.2,0.8,0.8,0.6,1.3l0,0c-0.1,0.4-0.5,0.6-0.9,0.6l0,0C107.6,59.1,107.5,59.1,107.4,59z        M126.5,58.5c-0.2-0.5,0-1.1,0.6-1.3l0,0c0.5-0.2,1.1,0.1,1.3,0.6l0,0c0.2,0.5-0.1,1.1-0.6,1.3l0,0c-0.1,0-0.2,0.1-0.4,0.1l0,0       C127,59.1,126.7,58.9,126.5,58.5z M103.6,57.2c-0.5-0.3-0.6-0.9-0.4-1.4l0,0c0.3-0.5,0.9-0.6,1.4-0.4l0,0       c0.5,0.3,0.6,0.9,0.4,1.4l0,0c-0.2,0.3-0.5,0.5-0.9,0.5l0,0C103.9,57.4,103.7,57.3,103.6,57.2z M130.2,56.8       c-0.3-0.5-0.1-1.1,0.4-1.4l0,0c0.5-0.3,1.1-0.1,1.4,0.4l0,0c0.3,0.5,0.1,1.1-0.4,1.4l0,0l0,0l0,0c-0.2,0.1-0.3,0.1-0.5,0.1l0,0       C130.7,57.3,130.4,57.2,130.2,56.8z M100.1,54.9c-0.4-0.3-0.5-1-0.1-1.4l0,0c0.3-0.4,1-0.5,1.4-0.2l0,0c0.4,0.3,0.5,1,0.2,1.4       l0,0c-0.2,0.2-0.5,0.4-0.8,0.4l0,0C100.5,55.1,100.3,55,100.1,54.9z M133.6,54.7c-0.4-0.4-0.3-1.1,0.1-1.4l0,0       c0.4-0.3,1.1-0.3,1.4,0.2l0,0c0.3,0.4,0.3,1-0.2,1.4l0,0c-0.2,0.1-0.4,0.2-0.6,0.2l0,0C134.1,55.1,133.8,54.9,133.6,54.7z        M97.1,52c-0.4-0.4-0.4-1,0-1.4l0,0c0.4-0.4,1-0.4,1.4,0l0,0c0.4,0.4,0.4,1,0,1.4l0,0c-0.2,0.2-0.4,0.3-0.7,0.3l0,0       C97.5,52.4,97.2,52.2,97.1,52z M136.7,52.1c-0.4-0.4-0.4-1,0-1.4l0,0c0.4-0.4,1-0.4,1.4,0l0,0c0.4,0.4,0.4,1,0.1,1.4l0,0       c-0.2,0.2-0.5,0.3-0.7,0.3l0,0C137.1,52.3,136.9,52.2,136.7,52.1z M94.4,48.8c-0.3-0.5-0.2-1.1,0.3-1.4l0,0       c0.5-0.3,1.1-0.2,1.4,0.2l0,0c0.3,0.5,0.2,1.1-0.3,1.4l0,0c-0.2,0.1-0.4,0.2-0.6,0.2l0,0C94.9,49.2,94.6,49.1,94.4,48.8z        M139.3,49c-0.4-0.3-0.6-0.9-0.3-1.4l0,0c0.3-0.5,0.9-0.6,1.4-0.3l0,0c0.5,0.3,0.6,0.9,0.3,1.4l0,0c-0.2,0.3-0.5,0.4-0.8,0.4       l0,0C139.7,49.2,139.5,49.1,139.3,49z M92.3,45.2L92.3,45.2L92.3,45.2c-0.2-0.5,0-1.1,0.5-1.3l0,0c0.5-0.2,1.1,0,1.3,0.5l0,0       c0.2,0.5,0,1.1-0.5,1.3l0,0c-0.1,0.1-0.3,0.1-0.4,0.1l0,0C92.9,45.7,92.5,45.5,92.3,45.2z M141.4,45.6       c-0.5-0.2-0.7-0.8-0.5-1.3l0,0c0.2-0.5,0.8-0.7,1.3-0.5l0,0c0.5,0.2,0.7,0.8,0.5,1.3l0,0c-0.2,0.4-0.5,0.6-0.9,0.6l0,0       C141.7,45.7,141.6,45.6,141.4,45.6z M90.8,41.3c-0.2-0.5,0.1-1.1,0.7-1.2l0,0c0.5-0.2,1.1,0.1,1.2,0.7l0,0       c0.2,0.5-0.1,1.1-0.7,1.2l0,0c-0.1,0-0.2,0-0.3,0l0,0C91.3,42,90.9,41.7,90.8,41.3z M143.1,41.9c-0.5-0.2-0.8-0.7-0.7-1.2l0,0       c0.2-0.5,0.7-0.8,1.2-0.7l0,0c0.5,0.2,0.8,0.7,0.7,1.2l0,0c-0.1,0.4-0.5,0.7-0.9,0.7l0,0C143.3,41.9,143.2,41.9,143.1,41.9z        M89.9,37.2c-0.1-0.5,0.3-1,0.8-1.1l0,0c0.6-0.1,1.1,0.3,1.1,0.8l0,0c0.1,0.5-0.3,1.1-0.8,1.1l0,0c-0.1,0-0.1,0-0.2,0l0,0       C90.4,38,89.9,37.7,89.9,37.2z M144.1,38c-0.5-0.1-0.9-0.6-0.8-1.1l0,0c0.1-0.6,0.6-0.9,1.1-0.8l0,0c0.5,0.1,0.9,0.6,0.8,1.1       l0,0c-0.1,0.5-0.5,0.9-1,0.9l0,0C144.2,38,144.2,38,144.1,38z M89.6,33c0-0.5,0.4-1,1-1l0,0c0.6,0,1,0.5,1,1l0,0       c0,0.5-0.4,1-1,1l0,0C90,34,89.6,33.6,89.6,33z M143.6,33C143.6,33,143.6,32.9,143.6,33L143.6,33c0-0.1,0-0.1,0-0.1l0,0       c0-0.5,0.5-1,1-1l0,0c0.6,0,1,0.4,1,1l0,0c0,0,0,0,0,0.1l0,0c0,0,0,0,0,0.1l0,0c0,0.5-0.5,1-1,1l0,0       C144,34,143.6,33.5,143.6,33z M90.7,30c-0.6-0.1-0.9-0.6-0.9-1.1l0,0c0.1-0.5,0.6-0.9,1.1-0.8l0,0c0.5,0.1,0.9,0.6,0.8,1.1l0,0       c-0.1,0.5-0.5,0.9-1,0.9l0,0C90.8,30,90.7,30,90.7,30z M143.2,29c-0.1-0.5,0.3-1.1,0.8-1.1l0,0c0.5-0.1,1.1,0.3,1.1,0.8l0,0       l0,0l0,0c0.1,0.5-0.3,1.1-0.8,1.1l0,0c-0.1,0-0.1,0-0.1,0l0,0C143.7,29.8,143.3,29.5,143.2,29z M91.4,26       c-0.5-0.2-0.8-0.7-0.7-1.2l0,0c0.2-0.5,0.7-0.8,1.2-0.7l0,0c0.5,0.2,0.8,0.7,0.7,1.2l0,0c-0.1,0.4-0.5,0.7-1,0.7l0,0       C91.6,26.1,91.5,26,91.4,26z M142.4,25.2c-0.2-0.5,0.1-1.1,0.6-1.2l0,0c0.5-0.2,1.1,0.1,1.3,0.7l0,0c0.2,0.5-0.1,1.1-0.7,1.2       l0,0c-0.1,0-0.2,0-0.3,0l0,0C142.9,25.9,142.5,25.6,142.4,25.2z M92.8,22.2c-0.5-0.2-0.7-0.8-0.5-1.3l0,0c0,0,0,0,0,0l0,0       c0.2-0.5,0.8-0.7,1.3-0.5l0,0c0.5,0.2,0.7,0.8,0.5,1.3l0,0c-0.2,0.4-0.5,0.6-0.9,0.6l0,0C93,22.3,92.9,22.3,92.8,22.2z        M140.9,21.6L140.9,21.6c-0.2-0.5,0-1.1,0.5-1.3l0,0c0.5-0.2,1.1,0,1.3,0.5l0,0l0,0l0,0c0.2,0.5,0,1.1-0.5,1.3l0,0       c-0.1,0.1-0.3,0.1-0.4,0.1l0,0C141.5,22.2,141.1,21.9,140.9,21.6z M94.6,18.6c-0.5-0.3-0.6-0.9-0.3-1.4l0,0       c0.3-0.5,0.9-0.6,1.4-0.3l0,0c0.5,0.3,0.6,0.9,0.3,1.4h0c-0.2,0.3-0.5,0.4-0.8,0.4l0,0C95,18.8,94.8,18.7,94.6,18.6z M139,18.2       c-0.3-0.5-0.2-1.1,0.2-1.4l0,0c0.5-0.3,1.1-0.2,1.4,0.3l0,0l0,0l0,0c0.3,0.5,0.2,1.1-0.2,1.4l0,0c-0.2,0.1-0.4,0.2-0.6,0.2l0,0       C139.5,18.7,139.2,18.5,139,18.2z M97,15.4c-0.4-0.4-0.4-1-0.1-1.4l0,0c0.4-0.4,1-0.4,1.4-0.1l0,0c0.4,0.4,0.4,1,0.1,1.4l0,0       c-0.2,0.2-0.5,0.3-0.7,0.3l0,0C97.5,15.6,97.2,15.6,97,15.4z M136.5,15.2c-0.4-0.4-0.3-1,0.1-1.4l0,0c0.4-0.4,1-0.4,1.4,0l0,0       c0.4,0.4,0.4,1,0,1.4l0,0c-0.2,0.2-0.4,0.3-0.7,0.3l0,0C137,15.5,136.7,15.4,136.5,15.2z M99.9,12.5c-0.4-0.4-0.3-1.1,0.1-1.4       l0,0l0,0l0,0c0.4-0.3,1.1-0.3,1.4,0.2l0,0c0.3,0.4,0.3,1.1-0.2,1.4l0,0c-0.2,0.1-0.4,0.2-0.6,0.2l0,0       C100.4,12.9,100.1,12.8,99.9,12.5z M133.7,12.6L133.7,12.6c-0.4-0.3-0.5-1-0.2-1.4l0,0c0.4-0.4,1-0.5,1.4-0.2l0,0       c0.4,0.3,0.5,1,0.2,1.4l0,0c-0.2,0.2-0.5,0.4-0.8,0.4l0,0C134.1,12.8,133.9,12.7,133.7,12.6z M103.1,10.1       c-0.3-0.5-0.1-1.1,0.4-1.4l0,0c0.5-0.3,1.1-0.1,1.4,0.4l0,0c0.3,0.5,0.1,1.1-0.4,1.4l0,0c-0.2,0.1-0.3,0.1-0.5,0.1l0,0       C103.6,10.6,103.3,10.4,103.1,10.1z M130.5,10.4c-0.5-0.3-0.6-0.9-0.4-1.4l0,0c0.3-0.5,0.9-0.6,1.4-0.4l0,0       c0.5,0.3,0.6,0.9,0.4,1.4l0,0c-0.2,0.3-0.5,0.5-0.9,0.5l0,0C130.8,10.5,130.6,10.5,130.5,10.4z M106.7,8.2       c-0.2-0.5,0.1-1.1,0.6-1.3l0,0c0.5-0.2,1.1,0.1,1.3,0.6l0,0c0.2,0.5,0,1.1-0.6,1.3l0,0c-0.1,0-0.2,0.1-0.4,0.1l0,0       C107.2,8.8,106.8,8.6,106.7,8.2z M127,8.7c-0.5-0.2-0.8-0.8-0.6-1.3l0,0c0.2-0.5,0.8-0.8,1.3-0.6l0,0l0,0l0,0       c0.5,0.2,0.8,0.8,0.6,1.3l0,0c-0.1,0.4-0.5,0.6-0.9,0.6l0,0C127.2,8.8,127.1,8.8,127,8.7z M110.5,6.9c-0.1-0.5,0.2-1.1,0.8-1.2       l0,0c0.5-0.1,1.1,0.2,1.2,0.8l0,0c0.1,0.5-0.2,1.1-0.8,1.2l0,0c-0.1,0-0.1,0-0.2,0l0,0C111,7.7,110.6,7.3,110.5,6.9z        M123.3,7.6c-0.5-0.1-0.9-0.7-0.8-1.2l0,0c0.1-0.5,0.7-0.9,1.2-0.8l0,0c0.5,0.1,0.9,0.7,0.8,1.2l0,0c-0.1,0.5-0.5,0.8-1,0.8       l0,0C123.4,7.6,123.3,7.6,123.3,7.6z M114.5,6.1c0-0.5,0.4-1,0.9-1.1l0,0c0.6,0,1,0.4,1.1,0.9l0,0c0,0.5-0.4,1-0.9,1.1l0,0       c0,0,0,0-0.1,0l0,0C114.9,7,114.5,6.6,114.5,6.1z M119.4,7c-0.5,0-1-0.5-0.9-1.1l0,0c0-0.5,0.5-1,1.1-0.9l0,0       c0.5,0,1,0.5,0.9,1.1l0,0C120.4,6.6,120,7,119.4,7L119.4,7C119.5,7,119.4,7,119.4,7z"/></g><g><path class="st5" d="M104.5,118c0-0.6,0.5-1,1-1l0,0c0.5,0,1,0.4,1,1l0,0c0,0.5-0.5,1-1,1l0,0C104.9,119,104.5,118.5,104.5,118       z M100.5,118c0-0.6,0.5-1,1-1l0,0c0.5,0,1,0.4,1,1l0,0c0,0.5-0.5,1-1,1l0,0C100.9,119,100.5,118.5,100.5,118z M96.5,118       c0-0.6,0.5-1,1-1l0,0c0.5,0,1,0.4,1,1l0,0c0,0.5-0.5,1-1,1l0,0C96.9,119,96.5,118.5,96.5,118z M92.5,118c0-0.6,0.5-1,1-1l0,0       c0.5,0,1,0.4,1,1l0,0c0,0.5-0.5,1-1,1l0,0C92.9,119,92.5,118.5,92.5,118z M88.5,118c0-0.6,0.5-1,1-1l0,0c0.5,0,1,0.4,1,1l0,0       c0,0.5-0.5,1-1,1l0,0C88.9,119,88.5,118.5,88.5,118z M84.5,118c0-0.6,0.5-1,1-1l0,0c0.5,0,1,0.4,1,1l0,0c0,0.5-0.5,1-1,1l0,0       C84.9,119,84.5,118.5,84.5,118z M80.5,118c0-0.6,0.5-1,1-1l0,0c0.5,0,1,0.4,1,1l0,0c0,0.5-0.5,1-1,1l0,0       C80.9,119,80.5,118.5,80.5,118z M76.5,118c0-0.6,0.5-1,1-1l0,0c0.5,0,1,0.4,1,1l0,0c0,0.5-0.5,1-1,1l0,0       C76.9,119,76.5,118.5,76.5,118z M72.5,118c0-0.6,0.4-1,1-1l0,0c0.5,0,1,0.4,1,1l0,0c0,0.5-0.5,1-1,1l0,0       C72.9,119,72.5,118.5,72.5,118z M68.5,118c0-0.6,0.4-1,1-1l0,0c0.5,0,1,0.4,1,1l0,0c0,0.5-0.5,1-1,1l0,0       C68.9,119,68.5,118.5,68.5,118z M64.5,118c0-0.6,0.4-1,1-1l0,0c0.5,0,1,0.4,1,1l0,0c0,0.5-0.5,1-1,1l0,0       C64.9,119,64.5,118.5,64.5,118z M60.5,118c0-0.6,0.4-1,1-1l0,0c0.5,0,1,0.4,1,1l0,0c0,0.5-0.5,1-1,1l0,0       C60.9,119,60.5,118.5,60.5,118z M56.5,118c0-0.6,0.5-1,1-1l0,0c0.5,0,1,0.4,1,1l0,0c0,0.5-0.5,1-1,1l0,0       C56.9,119,56.5,118.5,56.5,118z M52.5,118c0-0.6,0.5-1,1-1l0,0c0.5,0,1,0.4,1,1l0,0c0,0.5-0.5,1-1,1l0,0       C52.9,119,52.5,118.5,52.5,118z M48.5,118c0-0.6,0.5-1,1-1l0,0c0.5,0,1,0.4,1,1l0,0c0,0.5-0.5,1-1,1l0,0       C48.9,119,48.5,118.5,48.5,118z M44.5,118c0-0.6,0.5-1,1-1l0,0c0.5,0,1,0.4,1,1l0,0c0,0.5-0.5,1-1,1l0,0       C44.9,119,44.5,118.5,44.5,118z M40.5,118c0-0.6,0.5-1,1-1l0,0c0.5,0,1,0.4,1,1l0,0c0,0.5-0.5,1-1,1l0,0       C40.9,119,40.5,118.5,40.5,118z M36.5,118c0-0.6,0.5-1,1-1l0,0c0.5,0,1,0.4,1,1l0,0c0,0.5-0.5,1-1,1l0,0       C36.9,119,36.5,118.5,36.5,118z M32.5,118c0-0.6,0.5-1,1-1l0,0c0.5,0,1,0.4,1,1l0,0c0,0.5-0.5,1-1,1l0,0       C32.9,119,32.5,118.5,32.5,118z M28.5,118c0-0.6,0.5-1,1-1l0,0c0.5,0,1,0.4,1,1l0,0c0,0.5-0.5,1-1,1l0,0       C28.9,119,28.5,118.5,28.5,118z M24.5,118c0-0.6,0.4-1,1-1l0,0c0.5,0,1,0.4,1,1l0,0c0,0.5-0.5,1-1,1l0,0       C24.9,119,24.5,118.5,24.5,118z M20.5,118c0-0.6,0.4-1,1-1l0,0c0.5,0,1,0.4,1,1l0,0c0,0.5-0.5,1-1,1l0,0       C20.9,119,20.5,118.5,20.5,118z M16.5,118c0-0.6,0.4-1,1-1l0,0c0.5,0,1,0.4,1,1l0,0c0,0.5-0.5,1-1,1l0,0       C16.9,119,16.5,118.5,16.5,118z M12.5,118c0-0.6,0.4-1,1-1l0,0c0.5,0,1,0.4,1,1l0,0c0,0.5-0.5,1-1,1l0,0       C12.9,119,12.5,118.5,12.5,118z M8.5,118c0-0.6,0.5-1,1-1l0,0c0.5,0,1,0.4,1,1l0,0c0,0.5-0.5,1-1,1l0,0       C8.9,119,8.5,118.5,8.5,118z M4.5,118c0-0.6,0.5-1,1-1l0,0c0.5,0,1,0.4,1,1l0,0c0,0.5-0.5,1-1,1l0,0C4.9,119,4.5,118.5,4.5,118       z M0.5,118c0-0.6,0.5-1,1-1l0,0c0.5,0,1,0.4,1,1l0,0c0,0.5-0.5,1-1,1l0,0C0.9,119,0.5,118.5,0.5,118z"/></g><g><path class="st5" d="M142.5,118c0-0.6,0.5-1,1-1l0,0c0.6,0,1,0.4,1,1l0,0c0,0.5-0.4,1-1,1l0,0C143,119,142.5,118.5,142.5,118z        M138.5,118c0-0.6,0.5-1,1-1l0,0c0.6,0,1,0.4,1,1l0,0c0,0.5-0.4,1-1,1l0,0C139,119,138.5,118.5,138.5,118z M134.5,118       c0-0.6,0.5-1,1-1l0,0c0.6,0,1,0.4,1,1l0,0c0,0.5-0.4,1-1,1l0,0C135,119,134.5,118.5,134.5,118z M130.5,118c0-0.6,0.5-1,1-1l0,0       c0.6,0,1,0.4,1,1l0,0c0,0.5-0.4,1-1,1l0,0C131,119,130.5,118.5,130.5,118z M126.5,118c0-0.6,0.5-1,1-1l0,0c0.6,0,1,0.4,1,1l0,0       c0,0.5-0.4,1-1,1l0,0C127,119,126.5,118.5,126.5,118z"/></g><g><path class="st5" d="M107.5,99.8c-4.5,0-8.7-1.6-12-4.5c-3.3,2.9-7.6,4.5-12,4.5c-4.4,0-8.5-1.6-11.9-4.5       c-3.4,3-7.5,4.5-11.9,4.5c-4.5,0-8.7-1.6-12-4.5c-3.3,2.9-7.5,4.5-11.9,4.5v0l-0.1,0c-4.4,0-8.6-1.6-11.9-4.5       c-3.3,2.9-7.6,4.5-12,4.5c-5.1,0-7.8-2.1-10.7-4.9l-0.4,0l0-2l1.2,0L2,93.2c3.2,3.1,5.5,4.6,9.6,4.6c4.3,0,8.3-1.6,11.4-4.6       l0.7-0.7l0.7,0.7c3,2.9,7,4.6,11.3,4.6c4.2,0,8.2-1.6,11.3-4.6l0.7-0.7l0.7,0.7c3.1,3,7.1,4.6,11.4,4.6c4.2,0,8.1-1.6,11.2-4.6       l0.7-0.7l0.7,0.7c3.1,3,7,4.6,11.2,4.6c4.3,0,8.3-1.6,11.4-4.6l0.7-0.7l0.7,0.7c3.1,3,7.1,4.6,11.4,4.6c4.3,0,8.3-1.6,11.3-4.6       l0.7-0.7l0.7,0.7c2.1,2,4.6,3.4,7.4,4.1l-0.5,1.9c-2.8-0.7-5.4-2.1-7.6-4C116.2,98.2,112,99.8,107.5,99.8z"/></g><g><path class="st5" d="M95.6,109.8c-4.4,0-8.5-1.6-11.8-4.5c-3.3,3-7.4,4.5-11.8,4.5c-4.4,0-8.6-1.6-11.9-4.5       c-3.3,2.9-7.5,4.5-11.9,4.5c-4.4,0-8.6-1.6-11.9-4.5c-3.3,2.9-7.5,4.5-11.9,4.5c-4.4,0-8.5-1.6-11.8-4.5       c-3.3,3-7.4,4.5-11.8,4.5v-2c4.2,0,8-1.6,11.1-4.6l0.7-0.7l0.7,0.7c3.1,3,6.9,4.6,11.1,4.6c4.2,0,8.2-1.6,11.2-4.6l0.7-0.7       l0.7,0.7c3,3,7,4.6,11.2,4.6c4.2,0,8.2-1.6,11.2-4.6l0.7-0.7l0.7,0.7c3,3,7,4.6,11.2,4.6c4.2,0,8-1.6,11.1-4.6l0.7-0.7l0.7,0.7       c3.1,3,6.9,4.6,11.1,4.6c4.2,0,8.2-1.6,11.2-4.6l0.7-0.7l0.7,0.7c2.6,2.5,6,4.1,9.6,4.5l-0.2,2c-3.7-0.4-7.3-1.9-10.1-4.4       C104.2,108.2,100,109.8,95.6,109.8z"/></g><g><g><rect class="st5" height="35" width="2" x="50.5" y="52.9"/></g><g><path class="st5" d="M83.5,85.9h-22v-2h22c0.4,0,0.7-0.2,0.9-0.6c0.2-0.3,0.1-0.7-0.1-1L51.7,38.9L33.6,82.6        c-0.1,0.3-0.1,0.7,0.1,0.9c0.2,0.3,0.5,0.4,0.8,0.4h17v2h-17c-1,0-1.9-0.5-2.5-1.3c-0.6-0.8-0.7-1.9-0.3-2.8l19.5-46.8        l34.6,46.2c0.7,0.9,0.8,2.1,0.3,3.1C85.7,85.3,84.6,85.9,83.5,85.9z"/></g><g><path class="st5" d="M51.5,50.9c-0.3,0-0.5-0.1-0.7-0.3c-0.1-0.1-0.2-0.2-0.2-0.3c-0.1-0.1-0.1-0.2-0.1-0.4        c0-0.1,0-0.3,0.1-0.4c0-0.1,0.1-0.2,0.2-0.3c0.4-0.4,1-0.4,1.4,0c0.1,0.1,0.2,0.2,0.2,0.3c0,0.1,0.1,0.2,0.1,0.4        c0,0.1,0,0.3-0.1,0.4c-0.1,0.1-0.1,0.2-0.2,0.3C52,50.8,51.8,50.9,51.5,50.9z"/></g><g><path class="st5" d="M82.1,95.7l-1.2-1.6l5.6-4.2h-7v-2h10c0.4,0,0.8,0.3,0.9,0.7c0.1,0.4,0,0.9-0.3,1.1L82.1,95.7z"/></g><g><path class="st5" d="M34.8,95.6l-6-6c-0.3-0.3-0.4-0.7-0.2-1.1c0.2-0.4,0.5-0.6,0.9-0.6h42v2H31.9l4.3,4.3L34.8,95.6z"/></g><g><line class="st4" x1="75.5" x2="75.5" y1="88.9" y2="88.9"/></g><g><rect class="st5" height="20" width="2" x="54.5" y="68.9"/></g><g><path class="st5" d="M55.5,65.9c-0.1,0-0.3,0-0.4-0.1c-0.1,0-0.2-0.1-0.3-0.2c-0.2-0.2-0.3-0.4-0.3-0.7c0-0.1,0-0.3,0.1-0.4        c0-0.1,0.1-0.2,0.2-0.3c0.4-0.4,1-0.4,1.4,0c0.1,0.1,0.2,0.2,0.2,0.3c0,0.1,0.1,0.2,0.1,0.4c0,0.3-0.1,0.5-0.3,0.7        C56,65.8,55.8,65.9,55.5,65.9z"/></g></g></g><g><g><g><rect class="st5" height="4" width="2" x="21" y="133.3"/></g><g><rect class="st5" height="4" width="2" x="21" y="143.3"/></g></g><g><g><rect class="st5" height="2" width="4" x="25" y="139.3"/></g><g><rect class="st5" height="2" width="4" x="15" y="139.3"/></g></g></g><g><g><g><rect class="st5" height="4" width="2" x="81" y="163.3"/></g><g><rect class="st5" height="4" width="2" x="81" y="173.3"/></g></g><g><g><rect class="st5" height="2" width="4" x="85" y="169.3"/></g><g><rect class="st5" height="2" width="4" x="75" y="169.3"/></g></g></g><g><g><g><rect class="st5" height="4" width="2" x="21" y="43.3"/></g><g><rect class="st5" height="4" width="2" x="21" y="53.3"/></g></g><g><g><rect class="st5" height="2" width="4" x="25" y="49.3"/></g><g><rect class="st5" height="2" width="4" x="15" y="49.3"/></g></g></g><g><circle class="st2" cx="63" cy="150.5" r="1.5"/></g><g><circle class="st2" cx="45.5" cy="130.5" r="1"/></g><g><circle class="st2" cx="80.5" cy="126" r="1.5"/></g><g><circle class="st2" cx="14.3" cy="176.2" r="1.8"/></g></g></g></g></svg>